<svg width="68" height="17" viewBox="0 0 68 17" fill="none" xmlns="http://www.w3.org/2000/svg">
<path fill-rule="evenodd" clip-rule="evenodd" d="M2.98155 5.34451L3.22698 4.99496C3.43087 4.70597 3.67567 4.45107 3.96452 4.2479C4.24267 4.05167 4.54662 3.90087 4.87196 3.80181C5.1885 3.70527 5.51637 3.64975 5.84801 3.64975C6.42948 3.64975 6.99459 3.77026 7.49173 4.08448C7.92154 4.35705 8.24815 4.71859 8.42624 5.20128L8.52001 5.45619L8.666 5.22715C9.00708 4.69272 9.45829 4.27818 10.0417 4.02454C10.6074 3.77783 11.2002 3.64975 11.8169 3.64975C12.4714 3.64975 13.1907 3.75007 13.7476 4.11855C14.1975 4.41636 14.5355 4.80693 14.7381 5.31043C14.9407 5.81331 15.0427 6.34016 15.0427 6.88216V12.2813C15.0427 12.4019 14.9449 12.4996 14.8244 12.4996H12.9754C12.8548 12.4996 12.7571 12.4019 12.7571 12.2813V7.61849C12.7571 7.11246 12.6312 6.62977 12.2952 6.24047C11.9497 5.84107 11.4626 5.70289 10.9497 5.70289C10.6005 5.70289 10.2638 5.77798 9.95732 5.94834C9.6691 6.10797 9.43186 6.32691 9.25943 6.61021C9.08575 6.89604 9.01212 7.21531 9.01212 7.54845V12.2813C9.01212 12.4019 8.91438 12.4996 8.79382 12.4996H6.9448C6.82424 12.4996 6.72651 12.4019 6.72651 12.2813V7.61849C6.72651 7.11246 6.60191 6.62725 6.26397 6.24047C5.9166 5.84297 5.43204 5.70289 4.91916 5.70289C4.56738 5.70289 4.22568 5.77545 3.91669 5.94834C3.63099 6.1086 3.39878 6.32944 3.22824 6.61021C3.05518 6.89604 2.98092 7.21657 2.98092 7.54845V12.2813C2.98092 12.4019 2.88319 12.4996 2.76263 12.4996H0.913605C0.793045 12.4996 0.695312 12.4019 0.695312 12.2813V4.13115C0.695312 4.01059 0.793046 3.91286 0.913606 3.91286H2.76263C2.88319 3.91286 2.98092 4.01059 2.98092 4.13115V5.34514L2.98155 5.34451ZM61.4144 6.90762C61.4144 7.03999 61.5768 7.10362 61.6667 7.00648L64.4665 3.98222C64.5078 3.93759 64.5659 3.91223 64.6267 3.91223H66.6666C66.8545 3.91223 66.9546 4.13383 66.8304 4.27482L64.2541 7.19902C64.2111 7.24786 64.2057 7.31932 64.241 7.37403L67.3258 12.1631C67.4193 12.3084 67.315 12.4996 67.1423 12.4996H64.9503C64.8745 12.4996 64.8041 12.4603 64.7644 12.3958L62.6167 8.90973C62.5668 8.82874 62.4539 8.81661 62.388 8.88515L61.4551 9.85463C61.429 9.88174 61.4144 9.91791 61.4144 9.95554V12.2813C61.4144 12.4019 61.3167 12.4996 61.1961 12.4996H59.3471C59.2265 12.4996 59.1288 12.4019 59.1288 12.2813V0.359895C59.1288 0.239335 59.2265 0.141602 59.3471 0.141602H61.1961C61.3167 0.141602 61.4144 0.239335 61.4144 0.359895V6.90762ZM50.9001 5.1773L51.143 4.8593C51.447 4.45927 51.8233 4.13559 52.2877 3.93683C52.7364 3.74439 53.2084 3.64975 53.6954 3.64975C54.3719 3.64975 55.0698 3.76521 55.6563 4.12107C56.144 4.41762 56.5373 4.80756 56.7966 5.32053C57.0439 5.81079 57.1755 6.33133 57.1755 6.88153V12.2807C57.1755 12.4012 57.0777 12.499 56.9572 12.499H55.1081C54.9876 12.499 54.8898 12.4012 54.8898 12.2807V7.67969C54.8898 7.1459 54.7514 6.64113 54.3807 6.24552C54 5.83918 53.4752 5.70226 52.9346 5.70226C52.5602 5.70226 52.2027 5.78555 51.878 5.97547C51.5678 6.15592 51.323 6.40389 51.1531 6.72063C50.9706 7.05946 50.9007 7.43741 50.9007 7.81977V12.28C50.9007 12.4006 50.803 12.4983 50.6824 12.4983H48.8334C48.7128 12.4983 48.6151 12.4006 48.6151 12.28V4.12989C48.6151 4.00933 48.7128 3.91159 48.8334 3.91159H50.6824C50.803 3.91159 50.9007 4.00933 50.9007 4.12989V5.17578C50.9007 5.17635 50.9005 5.1769 50.9001 5.1773ZM44.7078 11.1317L44.4655 11.4484C44.222 11.7658 43.9205 12.027 43.582 12.239C42.964 12.6252 42.2466 12.7621 41.5267 12.7621C40.7483 12.7621 40.0025 12.593 39.3286 12.193C38.6709 11.803 38.1669 11.2598 37.8038 10.5878C37.4061 9.85272 37.2506 9.03626 37.2506 8.20528C37.2506 7.57432 37.34 6.94273 37.5653 6.35089C37.7704 5.81457 38.07 5.33063 38.4652 4.91419C38.8503 4.50848 39.304 4.19616 39.8188 3.981C40.3631 3.75448 40.9377 3.64975 41.5261 3.64975C42.246 3.64975 42.964 3.78729 43.5814 4.17281C43.9199 4.38418 44.2214 4.64477 44.4649 4.96341L44.7072 5.28015V4.13052C44.7072 4.00996 44.8049 3.91223 44.9255 3.91223H46.4416C46.5622 3.91223 46.6599 4.00996 46.6599 4.13052V12.2807C46.6599 12.4012 46.5622 12.499 46.4416 12.499H44.9256C44.805 12.499 44.7072 12.4012 44.7073 12.2806L44.7078 11.1317ZM28.8998 4.87696L29.1257 4.66685C29.3781 4.43277 29.6588 4.23275 29.964 4.07249C30.5391 3.77089 31.1722 3.64975 31.8179 3.64975C32.6152 3.64975 33.376 3.82831 34.0576 4.25168C34.7146 4.65991 35.2211 5.21074 35.5855 5.89344C35.9694 6.61211 36.1386 7.39324 36.1386 8.20592C36.1386 8.84066 36.0398 9.46721 35.8146 10.0609C35.6113 10.5954 35.3199 11.0837 34.9241 11.497C34.5377 11.9015 34.0815 12.2119 33.5686 12.4308C33.0268 12.6624 32.4497 12.7621 31.8626 12.7621C31.356 12.7621 30.8532 12.6876 30.3768 12.516C29.9539 12.3627 29.5587 12.1488 29.2214 11.8491C29.0741 11.7178 28.9382 11.5734 28.8187 11.4162L28.5764 11.0982V12.2813C28.5764 12.4019 28.4786 12.4996 28.3581 12.4996H26.842C26.7214 12.4996 26.6237 12.4019 26.6237 12.2813V0.359895C26.6237 0.239335 26.7214 0.141602 26.842 0.141602H28.6822C28.8027 0.141602 28.9005 0.239335 28.9005 0.359895V4.8776L28.8998 4.87696ZM19.4918 12.7009L16.2121 4.20917C16.1568 4.06614 16.2624 3.91223 16.4157 3.91223H18.4209C18.5148 3.91223 18.5982 3.97225 18.6279 4.06127L20.6551 10.1218C20.6996 10.2549 20.8881 10.2541 20.9315 10.1206L22.8995 4.06307C22.9288 3.97312 23.0126 3.91223 23.1072 3.91223H25.0447C25.1972 3.91223 25.3027 4.06462 25.249 4.20736L21.7183 13.595C21.481 14.1937 21.1689 14.8077 20.7372 15.2897C20.4018 15.6639 20.0066 15.9724 19.5371 16.1573C19.084 16.3346 18.6102 16.4198 18.1244 16.4198C17.7631 16.4198 17.4026 16.3832 17.0489 16.3081C16.7556 16.2469 16.4724 16.1503 16.2037 16.0185C16.1748 16.0045 16.1597 15.9721 16.1677 15.941L16.617 14.1831C16.6273 14.1426 16.6714 14.121 16.7097 14.1376C16.8444 14.1975 16.9847 14.2455 17.1275 14.2827C17.344 14.3389 17.5674 14.3748 17.7915 14.3748C18.1218 14.3748 18.4541 14.3098 18.7323 14.1243C19.0186 13.9325 19.1885 13.629 19.2936 13.3079L19.4918 12.7009ZM41.9383 10.8143C42.3807 10.8143 42.8105 10.7203 43.1962 10.4982C43.5732 10.2811 43.862 9.96756 44.0697 9.58646C44.3013 9.16182 44.3925 8.68671 44.3925 8.20592C44.3925 7.72512 44.3013 7.25064 44.0697 6.82537C43.8627 6.44553 43.5719 6.13826 43.1962 5.9231C42.8092 5.70037 42.3832 5.59815 41.9383 5.59815C41.4933 5.59815 41.0736 5.70163 40.6897 5.9231C40.3128 6.13952 40.0151 6.44364 39.8068 6.82537C39.5765 7.24749 39.4928 7.72891 39.4928 8.20592C39.4928 8.68292 39.5765 9.16434 39.8068 9.58646C40.0158 9.96945 40.3115 10.2805 40.6897 10.4982C41.0723 10.7184 41.4984 10.8143 41.9383 10.8143ZM31.3887 10.8143C31.8387 10.8143 32.2367 10.7079 32.6718 10.4988C33.0538 10.2824 33.3509 9.97071 33.5636 9.58772C33.7977 9.16371 33.887 8.68608 33.887 8.20592C33.887 7.72575 33.7958 7.25064 33.5642 6.82537C33.354 6.43986 33.057 6.13384 32.6712 5.92247C32.2773 5.69595 31.8405 5.59815 31.3887 5.59815C30.9369 5.59815 30.5014 5.69911 30.1056 5.92247C29.7248 6.13826 29.4228 6.44112 29.2132 6.82537C28.9829 7.24749 28.8992 7.72828 28.8992 8.20592C28.8992 8.68355 28.9886 9.16498 29.2227 9.58772C29.4347 9.97071 29.7318 10.2824 30.1144 10.4988C30.5058 10.7203 30.9413 10.8143 31.3887 10.8143Z" fill="black"/>
</svg>
