<svg width="32" height="32" viewBox="0 0 32 32" fill="none" xmlns="http://www.w3.org/2000/svg">
<path d="M8.77756 25.0551C9.54374 25.0551 10.2785 24.7508 10.8203 24.209C11.3621 23.6672 11.6665 22.9324 11.6665 22.1662C11.6665 21.4001 11.3621 20.6653 10.8203 20.1235C10.2785 19.5817 9.54374 19.2773 8.77756 19.2773C8.01138 19.2773 7.27658 19.5817 6.73481 20.1235C6.19304 20.6653 5.88867 21.4001 5.88867 22.1662C5.88867 22.9324 6.19304 23.6672 6.73481 24.209C7.27658 24.7508 8.01138 25.0551 8.77756 25.0551Z" stroke="#75DCE3" stroke-width="2" stroke-linecap="round" stroke-linejoin="round"/>
<path d="M23.2229 25.0551C23.9891 25.0551 24.7239 24.7508 25.2656 24.209C25.8074 23.6672 26.1118 22.9324 26.1118 22.1662C26.1118 21.4001 25.8074 20.6653 25.2656 20.1235C24.7239 19.5817 23.9891 19.2773 23.2229 19.2773C22.4567 19.2773 21.7219 19.5817 21.1801 20.1235C20.6383 20.6653 20.334 21.4001 20.334 22.1662C20.334 22.9324 20.6383 23.6672 21.1801 24.209C21.7219 24.7508 22.4567 25.0551 23.2229 25.0551Z" stroke="#75DCE3" stroke-width="2" stroke-linecap="round" stroke-linejoin="round"/>
<path d="M16 13.4996V6.27734" stroke="#75DCE3" stroke-width="2" stroke-linecap="round" stroke-linejoin="round"/>
<path d="M5.88889 22.1662H3V13.4996L5.0717 8.32033C5.56525 7.08644 6.76031 6.27734 8.08925 6.27734H17.3269C18.3142 6.27734 19.2479 6.72614 19.8647 7.49708L24.6667 13.4996H26.1111C26.8773 13.4996 27.6121 13.8039 28.1539 14.3457C28.6956 14.8875 29 15.6223 29 16.3885V22.1662H26.1111" stroke="#75DCE3" stroke-width="2" stroke-linecap="round" stroke-linejoin="round"/>
<path d="M20.3327 22.167H11.666" stroke="#75DCE3" stroke-width="2" stroke-linecap="round" stroke-linejoin="round"/>
<path d="M3 13.5H24.6667" stroke="#75DCE3" stroke-width="2" stroke-linecap="round" stroke-linejoin="round"/>
</svg>
