<svg width="16" height="16" viewBox="0 0 16 16" fill="none" xmlns="http://www.w3.org/2000/svg">
<g id="Frame">
<path id="Vector" d="M8.0013 9.33317C8.35492 9.33317 8.69406 9.19269 8.94411 8.94265C9.19416 8.6926 9.33464 8.35346 9.33464 7.99984C9.33464 7.64622 9.19416 7.30708 8.94411 7.05703C8.69406 6.80698 8.35492 6.6665 8.0013 6.6665C7.64768 6.6665 7.30854 6.80698 7.05849 7.05703C6.80844 7.30708 6.66797 7.64622 6.66797 7.99984C6.66797 8.35346 6.80844 8.6926 7.05849 8.94265C7.30854 9.19269 7.64768 9.33317 8.0013 9.33317Z" stroke="#C8C8C8" stroke-width="1.5" stroke-linecap="round" stroke-linejoin="round"/>
<path id="Vector_2" d="M14.6654 8.00016C12.8874 11.1115 10.6654 12.6668 7.9987 12.6668C5.33203 12.6668 3.11003 11.1115 1.33203 8.00016C3.11003 4.88883 5.33203 3.3335 7.9987 3.3335C10.6654 3.3335 12.8874 4.88883 14.6654 8.00016Z" stroke="#C8C8C8" stroke-width="1.5" stroke-linecap="round" stroke-linejoin="round"/>
</g>
</svg>
