<svg width="32" height="32" viewBox="0 0 32 32" fill="none" xmlns="http://www.w3.org/2000/svg">
<path fill-rule="evenodd" clip-rule="evenodd" d="M30 16.084C30 8.35198 23.7307 2.08398 16 2.08398C8.26933 2.08398 2 8.35065 2 16.084C2 23.0707 7.12 28.8627 13.8133 29.9146V20.132H10.256V16.0827H13.8107V13C13.8107 9.49332 15.9013 7.55332 19.0987 7.55332C20.632 7.55332 22.2333 7.82665 22.2333 7.82665V11.272H20.468C18.7293 11.272 18.1853 12.352 18.1853 13.4587V16.0853H22.068L21.448 20.1333H18.1867V29.916C24.88 28.8653 29.9987 23.0746 29.9987 16.0853L30 16.084Z" fill="#262626"/>
</svg>
