<svg width="60" height="60" viewBox="0 0 60 60" fill="none" xmlns="http://www.w3.org/2000/svg">
<rect width="60" height="60" rx="7.2" fill="#FF553D"/>
<g clip-path="url(#clip0_1152_780)">
<path d="M22.2157 38.9654C21.7066 38.5158 21.234 38.0183 20.8048 37.4797C20.7272 37.3838 20.5742 37.4272 20.5605 37.5481L20.0948 41.9667L20.0697 42.2154C20.0674 42.2405 20.0582 42.2634 20.0445 42.2816L18.8779 43.8884C18.8345 43.9477 18.846 44.0322 18.903 44.0778C19.3185 44.4087 19.7477 44.7191 20.1884 45.0113C20.25 45.0523 20.3322 45.0364 20.3756 44.977L21.5422 43.368C21.5559 43.3475 21.5765 43.3315 21.5993 43.3224L21.8276 43.2242L25.8731 41.4212C25.985 41.371 25.9804 41.2112 25.864 41.1679C25.227 40.9237 24.6129 40.627 24.0262 40.28C23.9873 40.2572 23.9417 40.2549 23.9029 40.2732L22.1221 41.0652C22.0901 41.0789 22.0536 41.0537 22.0582 41.0195L22.2614 39.0796C22.2659 39.0362 22.25 38.9928 22.2157 38.9654Z" fill="white"/>
<path d="M15.5316 40.5356C15.2211 40.1065 14.9311 39.6615 14.6594 39.2027C14.6252 39.1434 14.6389 39.0658 14.6937 39.0224L17.463 36.8588C17.4995 36.8314 17.4813 36.7721 17.4356 36.7721L13.4654 36.6351C13.4083 36.6351 13.3581 36.5964 13.3398 36.5416L12.7189 34.6336C12.7006 34.5788 12.7189 34.5195 12.7645 34.4829L15.8946 32.0363C15.9311 32.0089 15.9128 31.9496 15.8672 31.9496L12.3627 31.8286C12.2942 31.8263 12.2371 31.7716 12.2303 31.7031C12.1755 31.1736 12.1504 30.6418 12.1504 30.1123C12.1504 30.0347 12.2166 29.9708 12.2942 29.9754L18.0703 30.1762C18.1433 30.1785 18.1981 30.2356 18.2004 30.3086C18.2164 30.975 18.2872 31.6483 18.4196 32.3216C18.4287 32.3718 18.4105 32.422 18.3694 32.454L15.4083 34.7659C15.3717 34.7933 15.39 34.8527 15.4357 34.8527L19.189 34.9828C19.2392 34.9828 19.2849 35.0147 19.3077 35.0626C19.5954 35.6857 19.931 36.2745 20.3122 36.8246C20.3533 36.8839 20.3419 36.9638 20.2848 37.0094L15.7302 40.5653C15.6685 40.6132 15.5795 40.6018 15.5338 40.5379L15.5316 40.5356Z" fill="white"/>
<path d="M19.1435 25.3723C19.4152 24.7492 19.7394 24.1467 20.1207 23.5715C20.1891 23.4688 20.1001 23.3365 19.9791 23.3616L15.6322 24.2836L15.3879 24.3361C15.3651 24.3407 15.34 24.3407 15.3172 24.3315L13.4291 23.7199C13.3583 23.6971 13.283 23.7336 13.2579 23.802C13.0729 24.2996 12.9086 24.8017 12.767 25.3129C12.7465 25.3837 12.7876 25.459 12.8583 25.4818L14.7487 26.0935C14.7715 26.1003 14.7921 26.114 14.808 26.1323L14.9724 26.3194L17.9381 29.6082C18.0203 29.6995 18.1687 29.6447 18.1755 29.5215C18.2098 28.8414 18.3034 28.1635 18.4518 27.4994C18.4609 27.456 18.4518 27.4127 18.4198 27.3784L17.1162 25.9292C17.0934 25.904 17.1071 25.8607 17.1413 25.8538L19.0499 25.4476C19.0933 25.4385 19.1275 25.4088 19.1458 25.37L19.1435 25.3723Z" fill="white"/>
<path d="M15.5847 19.4999C15.8975 19.0731 16.2308 18.66 16.5824 18.2583C16.628 18.2058 16.7057 18.1967 16.7627 18.2355L19.6782 20.2005C19.717 20.2257 19.7649 20.1914 19.7535 20.1458L18.6577 16.3298C18.6417 16.275 18.6622 16.2156 18.7079 16.1814L20.3311 15.0015C20.3768 14.9672 20.4407 14.9672 20.4887 14.9992L23.7831 17.2199C23.8219 17.245 23.8698 17.2107 23.8584 17.1651L22.8904 13.7941C22.8721 13.7279 22.9041 13.6572 22.968 13.6298C23.4589 13.4175 23.9566 13.2281 24.4588 13.0638C24.5319 13.0387 24.6118 13.082 24.6346 13.1574L26.2282 18.7125C26.2487 18.781 26.2099 18.854 26.1414 18.8768C25.5113 19.0982 24.8949 19.3744 24.2945 19.7076C24.2488 19.7327 24.1963 19.7304 24.1529 19.7007L21.0389 17.5987C21.0001 17.5736 20.9521 17.6079 20.9635 17.6535L21.9977 21.2618C22.0114 21.312 21.9977 21.3645 21.9589 21.3988C21.4567 21.8643 21.0001 22.3642 20.5937 22.8982C20.5503 22.9553 20.4704 22.969 20.411 22.9279L15.6189 19.6962C15.555 19.6528 15.539 19.5638 15.5847 19.4999Z" fill="white"/>
<path d="M31.1277 18.2514C31.8035 18.3153 32.4793 18.4408 33.1436 18.6234C33.2623 18.6554 33.3628 18.5321 33.3011 18.4248L31.0798 14.5769L30.9542 14.3601C30.9428 14.3395 30.9359 14.3144 30.9359 14.2916V12.306C30.9359 12.233 30.8766 12.1713 30.8035 12.1668C30.2738 12.144 29.7442 12.144 29.2145 12.1668C29.1415 12.1691 29.0821 12.2307 29.0821 12.306V14.2939C29.0821 14.319 29.0775 14.3418 29.0638 14.3646L28.9383 14.5792L26.726 18.4134C26.6644 18.5207 26.7625 18.644 26.8813 18.612C27.5388 18.434 28.2123 18.313 28.8903 18.2491C28.9337 18.2445 28.9725 18.2194 28.9953 18.1829L29.9702 16.4963C29.9885 16.4666 30.0318 16.4666 30.0501 16.4963L31.025 18.1852C31.0478 18.224 31.0866 18.2468 31.13 18.2514H31.1277Z" fill="white"/>
<path d="M35.6139 13.0522C36.1161 13.2165 36.6138 13.4059 37.1047 13.6182C37.1686 13.6456 37.2006 13.7163 37.1823 13.7825L36.2143 17.1603C36.2006 17.2037 36.2508 17.2402 36.2896 17.2151L39.5818 14.9921C39.6297 14.9602 39.6914 14.9602 39.7393 14.9944L41.3625 16.1743C41.4082 16.2086 41.4287 16.2679 41.4128 16.3227L40.3192 20.141C40.3055 20.1844 40.3557 20.2209 40.3945 20.1958L43.3008 18.233C43.3579 18.1942 43.4355 18.2033 43.4812 18.2558C43.8351 18.6552 44.1684 19.0706 44.4789 19.4974C44.5245 19.5613 44.5086 19.6503 44.4446 19.6937L39.6526 22.9254C39.5932 22.9665 39.5133 22.9528 39.4699 22.8957C39.0658 22.364 38.6115 21.8641 38.1092 21.3963C38.0727 21.362 38.0567 21.3095 38.0704 21.2593L39.1069 17.6487C39.1206 17.6053 39.0704 17.5688 39.0316 17.5939L35.9198 19.6937C35.8764 19.7233 35.8216 19.7233 35.7782 19.6982C35.1801 19.3627 34.5614 19.0843 33.9313 18.8629C33.8628 18.8401 33.8263 18.767 33.8445 18.6986L35.4381 13.1434C35.4586 13.0681 35.5385 13.0248 35.6139 13.0499V13.0522Z" fill="white"/>
<path d="M41.6042 27.4452C41.7526 28.1094 41.8416 28.7872 41.8736 29.4765C41.8782 29.5997 42.0288 29.6545 42.111 29.5632L45.0858 26.263L45.2525 26.0758C45.2685 26.0576 45.289 26.0439 45.3118 26.037L47.1999 25.4231C47.2707 25.4003 47.3095 25.325 47.2912 25.2542C47.1497 24.743 46.9853 24.2386 46.8004 23.7456C46.7753 23.6771 46.6976 23.6406 46.6291 23.6634L44.7388 24.2797C44.716 24.2865 44.6908 24.2888 44.6657 24.2842L44.4214 24.2295L40.0883 23.3097C39.9673 23.2846 39.8805 23.417 39.9467 23.5197C40.3188 24.0902 40.6407 24.6928 40.9124 25.3181C40.9307 25.3592 40.9649 25.3889 41.0083 25.398L42.9146 25.8042C42.9489 25.8111 42.9626 25.8545 42.9398 25.8796L41.6339 27.3288C41.6042 27.3608 41.5928 27.4064 41.6019 27.4475L41.6042 27.4452Z" fill="white"/>
<path d="M47.9374 30.1038C47.9374 30.6333 47.91 31.1628 47.8597 31.6946C47.8529 31.763 47.7958 31.8178 47.7273 31.8201L44.2137 31.9433C44.1681 31.9433 44.1498 32.0027 44.1864 32.0301L47.3187 34.4744C47.3643 34.5109 47.3826 34.5703 47.3643 34.625L46.7433 36.533C46.7251 36.5878 46.6749 36.6266 46.6178 36.6266L42.6476 36.7658C42.6019 36.7658 42.5837 36.8252 42.6202 36.8526L45.3849 39.0093C45.4397 39.0527 45.4534 39.128 45.4192 39.1896C45.1475 39.6507 44.8553 40.0934 44.5471 40.5225C44.5014 40.5864 44.4124 40.5978 44.3507 40.5499L39.7961 36.9941C39.739 36.9507 39.7276 36.8685 39.7687 36.8092C40.1477 36.2615 40.4856 35.6749 40.7755 35.0518C40.7961 35.0062 40.8417 34.9742 40.8942 34.9742L44.6498 34.8441C44.6955 34.8441 44.7137 34.7848 44.6772 34.7574L41.7184 32.4477C41.6773 32.4158 41.659 32.3656 41.6682 32.3153C41.8006 31.6421 41.8759 30.9688 41.8919 30.3001C41.8919 30.227 41.9513 30.17 42.022 30.1677L47.7981 29.9669C47.8757 29.9646 47.9419 30.0262 47.9419 30.1038H47.9374Z" fill="white"/>
<path d="M36.0977 40.2458C35.5133 40.5905 34.8946 40.8872 34.2485 41.1291C34.132 41.1724 34.1275 41.3322 34.2393 41.3824L38.2986 43.19L38.5269 43.2904C38.5497 43.2996 38.568 43.3155 38.5817 43.3361L39.7506 44.9405C39.7939 44.9999 39.8761 45.0159 39.9378 44.9748C40.3807 44.6826 40.8076 44.37 41.2231 44.0413C41.2802 43.9957 41.2916 43.9112 41.2482 43.8519L40.0793 42.2451C40.0656 42.2246 40.0565 42.2018 40.0542 42.1767L40.0314 41.9279L39.5656 37.5253C39.5519 37.4021 39.399 37.3587 39.3214 37.4546C38.8921 37.9841 38.4196 38.4771 37.9082 38.9289C37.8762 38.9586 37.8579 38.9997 37.8625 39.0453L38.0657 40.983C38.0703 41.0173 38.0337 41.0446 38.0018 41.0287L36.221 40.2367C36.1799 40.2184 36.1342 40.2207 36.0977 40.2436V40.2458Z" fill="white"/>
<path d="M35.5274 47.0883C35.0251 47.2503 34.5115 47.3895 33.9886 47.5059C33.9202 47.5219 33.8517 47.4831 33.8288 47.4192L32.6257 44.1167C32.6097 44.0734 32.5503 44.0734 32.5344 44.1167L31.1759 47.8483C31.1554 47.9031 31.1052 47.9373 31.0481 47.9373H29.0413C28.9842 47.9373 28.9317 47.9008 28.9135 47.8483L27.5528 44.1167C27.5368 44.0734 27.4774 44.0734 27.4615 44.1167L26.2629 47.4124C26.24 47.4763 26.1715 47.5151 26.1031 47.5014C25.5825 47.385 25.0688 47.2458 24.5643 47.0837C24.4889 47.0609 24.4501 46.9787 24.4775 46.9057L26.4524 41.4761C26.4775 41.4076 26.5505 41.3711 26.619 41.3939C27.2583 41.5857 27.9203 41.7249 28.6007 41.807C28.6509 41.8139 28.6943 41.8458 28.7126 41.8938L29.9956 45.4245C30.0116 45.4678 30.071 45.4678 30.0869 45.4245L31.37 41.8983C31.3883 41.8504 31.4316 41.8162 31.4819 41.8116C32.1622 41.7317 32.8266 41.5925 33.4681 41.4031C33.5366 41.3825 33.6097 41.419 33.6348 41.4852L35.6096 46.9148C35.637 46.9879 35.5959 47.07 35.5228 47.0928L35.5274 47.0883Z" fill="white"/>
</g>
<defs>
<clipPath id="clip0_1152_780">
<rect width="35.8794" height="35.8794" fill="white" transform="translate(12.0605 12.0605)"/>
</clipPath>
</defs>
</svg>
