<svg width="40" height="40" viewBox="0 0 40 40" fill="none" xmlns="http://www.w3.org/2000/svg">
<g id="vuesax/linear/gallery-add">
<g id="gallery-add">
<path id="Vector" d="M14.9993 16.6667C16.8403 16.6667 18.3327 15.1743 18.3327 13.3333C18.3327 11.4924 16.8403 10 14.9993 10C13.1584 10 11.666 11.4924 11.666 13.3333C11.666 15.1743 13.1584 16.6667 14.9993 16.6667Z" stroke="#B0B8C1" stroke-width="1.5" stroke-linecap="round" stroke-linejoin="round"/>
<path id="Vector_2" d="M21.6673 3.33203H15.0007C6.66732 3.33203 3.33398 6.66536 3.33398 14.9987V24.9987C3.33398 33.332 6.66732 36.6654 15.0007 36.6654H25.0007C33.334 36.6654 36.6673 33.332 36.6673 24.9987V16.6654" stroke="#B0B8C1" stroke-width="1.5" stroke-linecap="round" stroke-linejoin="round"/>
<path id="Vector_3" d="M26.25 8.33203H35.4167" stroke="#B0B8C1" stroke-width="1.5" stroke-linecap="round"/>
<path id="Vector_4" d="M30.834 12.9167V3.75" stroke="#B0B8C1" stroke-width="1.5" stroke-linecap="round"/>
<path id="Vector_5" d="M4.44922 31.5836L12.6659 26.0669C13.9826 25.1836 15.8826 25.2836 17.0659 26.3003L17.6159 26.7836C18.9159 27.9003 21.0159 27.9003 22.3159 26.7836L29.2492 20.8336C30.5492 19.7169 32.6492 19.7169 33.9492 20.8336L36.6659 23.1669" stroke="#B0B8C1" stroke-width="1.5" stroke-linecap="round" stroke-linejoin="round"/>
</g>
</g>
</svg>
