<svg width="135" height="44" viewBox="0 0 135 44" fill="none" xmlns="http://www.w3.org/2000/svg">
<path fill-rule="evenodd" clip-rule="evenodd" d="M56.8196 18.557L57.1164 18.1342C57.363 17.7847 57.6591 17.4764 58.0084 17.2307C58.3448 16.9934 58.7124 16.811 59.1059 16.6912C59.4887 16.5745 59.8852 16.5073 60.2863 16.5073C60.9895 16.5073 61.6729 16.6531 62.2742 17.0331C62.794 17.3627 63.189 17.8 63.4043 18.3837L63.5177 18.692L63.6943 18.415C64.1068 17.7687 64.6525 17.2674 65.358 16.9606C66.0422 16.6622 66.7591 16.5073 67.5049 16.5073C68.2964 16.5073 69.1663 16.6287 69.8399 17.0743C70.384 17.4345 70.7927 17.9068 71.0378 18.5157C71.2829 19.1239 71.4061 19.7611 71.4061 20.4166V26.9462C71.4061 27.092 71.2879 27.2102 71.1421 27.2102H68.906C68.7602 27.2102 68.642 27.092 68.642 26.9462V21.3071C68.642 20.6951 68.4898 20.1113 68.0833 19.6405C67.6655 19.1575 67.0765 18.9904 66.4562 18.9904C66.0338 18.9904 65.6266 19.0812 65.256 19.2872C64.9074 19.4803 64.6205 19.7451 64.412 20.0877C64.2019 20.4333 64.1129 20.8195 64.1129 21.2224V26.9462C64.1129 27.092 63.9947 27.2102 63.8489 27.2102H61.6127C61.4669 27.2102 61.3487 27.092 61.3487 26.9462V21.3071C61.3487 20.6951 61.198 20.1083 60.7893 19.6405C60.3692 19.1598 59.7832 18.9904 59.1629 18.9904C58.7375 18.9904 58.3242 19.0781 57.9506 19.2872C57.605 19.481 57.3242 19.7481 57.118 20.0877C56.9087 20.4333 56.8189 20.821 56.8189 21.2224V26.9462C56.8189 27.092 56.7007 27.2102 56.5549 27.2102H54.3187C54.1729 27.2102 54.0547 27.092 54.0547 26.9462V17.0895C54.0547 16.9437 54.1729 16.8255 54.3187 16.8255H56.5549C56.7007 16.8255 56.8189 16.9437 56.8189 17.0895V18.5577L56.8196 18.557ZM127.487 20.4474C127.487 20.6074 127.684 20.6844 127.792 20.5669L131.178 16.9094C131.228 16.8555 131.299 16.8248 131.372 16.8248H133.839C134.066 16.8248 134.188 17.0928 134.037 17.2633L130.922 20.7998C130.87 20.8588 130.863 20.9453 130.906 21.0114L134.636 26.8032C134.75 26.9789 134.623 27.2102 134.414 27.2102H131.764C131.672 27.2102 131.587 27.1627 131.539 27.0847L128.941 22.8687C128.881 22.7707 128.744 22.756 128.665 22.8389L127.536 24.0114C127.505 24.0442 127.487 24.0879 127.487 24.1334V26.9462C127.487 27.092 127.369 27.2102 127.223 27.2102H124.987C124.841 27.2102 124.723 27.092 124.723 26.9462V12.5286C124.723 12.3828 124.841 12.2646 124.987 12.2646H127.223C127.369 12.2646 127.487 12.3828 127.487 12.5286V20.4474ZM114.771 18.3547L115.065 17.9701C115.433 17.4864 115.888 17.0949 116.45 16.8545C116.992 16.6218 117.563 16.5073 118.152 16.5073C118.97 16.5073 119.814 16.647 120.524 17.0774C121.113 17.436 121.589 17.9076 121.903 18.528C122.202 19.1209 122.361 19.7504 122.361 20.4158V26.9454C122.361 27.0912 122.243 27.2094 122.097 27.2094H119.861C119.715 27.2094 119.597 27.0912 119.597 26.9454V21.3811C119.597 20.7355 119.429 20.1251 118.981 19.6466C118.52 19.1552 117.886 18.9896 117.232 18.9896C116.779 18.9896 116.347 19.0903 115.954 19.32C115.579 19.5383 115.283 19.8381 115.077 20.2212C114.857 20.631 114.772 21.0881 114.772 21.5505V26.9447C114.772 27.0905 114.654 27.2087 114.508 27.2087H112.272C112.126 27.2087 112.008 27.0905 112.008 26.9447V17.088C112.008 16.9422 112.126 16.824 112.272 16.824H114.508C114.654 16.824 114.772 16.9422 114.772 17.088V18.3529C114.772 18.3536 114.772 18.3542 114.771 18.3547ZM107.283 25.5559L106.99 25.9389C106.695 26.3227 106.331 26.6387 105.921 26.8951C105.174 27.3621 104.306 27.5276 103.435 27.5276C102.494 27.5276 101.592 27.3231 100.777 26.8393C99.9818 26.3678 99.3721 25.7108 98.933 24.8981C98.452 24.0091 98.264 23.0217 98.264 22.0167C98.264 21.2537 98.3721 20.4898 98.6446 19.7741C98.8927 19.1254 99.2549 18.5402 99.7329 18.0365C100.199 17.5459 100.747 17.1682 101.37 16.9079C102.028 16.634 102.723 16.5073 103.435 16.5073C104.305 16.5073 105.174 16.6737 105.92 17.1399C106.33 17.3956 106.694 17.7107 106.989 18.0961L107.282 18.4791V17.0888C107.282 16.943 107.4 16.8248 107.546 16.8248H109.379C109.525 16.8248 109.643 16.943 109.643 17.0888V26.9454C109.643 27.0912 109.525 27.2094 109.379 27.2094H107.546C107.4 27.2094 107.282 27.0912 107.282 26.9453L107.283 25.5559ZM88.1647 17.9915L88.438 17.7374C88.7431 17.4543 89.0826 17.2124 89.4517 17.0186C90.1473 16.6538 90.9129 16.5073 91.6938 16.5073C92.6581 16.5073 93.5782 16.7233 94.4024 17.2353C95.197 17.729 95.8096 18.3952 96.2503 19.2208C96.7145 20.09 96.9192 21.0346 96.9192 22.0175C96.9192 22.7851 96.7997 23.5429 96.5273 24.2609C96.2815 24.9072 95.9291 25.4979 95.4504 25.9977C94.9831 26.4868 94.4313 26.8622 93.8111 27.127C93.1558 27.4071 92.4579 27.5276 91.7478 27.5276C91.1352 27.5276 90.5271 27.4376 89.951 27.23C89.4395 27.0446 88.9616 26.7859 88.5536 26.4235C88.3756 26.2648 88.2112 26.09 88.0666 25.9L87.7736 25.5154V26.9462C87.7736 27.092 87.6554 27.2102 87.5096 27.2102H85.676C85.5302 27.2102 85.412 27.092 85.412 26.9462V12.5286C85.412 12.3828 85.5302 12.2646 85.676 12.2646H87.9015C88.0473 12.2646 88.1655 12.3828 88.1655 12.5286V17.9923L88.1647 17.9915ZM76.7869 27.4536L72.8204 17.1839C72.7536 17.0109 72.8812 16.8248 73.0667 16.8248H75.4917C75.6053 16.8248 75.7061 16.8974 75.7421 17.005L78.1937 24.3346C78.2475 24.4955 78.4755 24.4945 78.528 24.3331L80.9081 17.0072C80.9434 16.8984 81.0448 16.8248 81.1592 16.8248H83.5024C83.6868 16.8248 83.8144 17.0091 83.7495 17.1817L79.4795 28.5349C79.1926 29.2591 78.8151 30.0015 78.293 30.5845C77.8874 31.037 77.4094 31.4102 76.8417 31.6337C76.2937 31.8482 75.7206 31.9512 75.1331 31.9512C74.6962 31.9512 74.2601 31.9069 73.8324 31.8161C73.4778 31.7421 73.1353 31.6253 72.8103 31.4659C72.7753 31.449 72.7571 31.4098 72.7667 31.3722L73.3101 29.2462C73.3226 29.1973 73.3759 29.1711 73.4222 29.1911C73.5851 29.2636 73.7548 29.3216 73.9275 29.3666C74.1894 29.4346 74.4595 29.4781 74.7305 29.4781C75.13 29.4781 75.5319 29.3995 75.8683 29.1751C76.2145 28.9431 76.42 28.5761 76.5471 28.1877L76.7869 27.4536ZM103.933 25.172C104.468 25.172 104.988 25.0583 105.455 24.7897C105.91 24.5272 106.26 24.148 106.511 23.6871C106.791 23.1735 106.901 22.5989 106.901 22.0175C106.901 21.436 106.791 20.8622 106.511 20.3479C106.261 19.8885 105.909 19.5169 105.455 19.2567C104.986 18.9873 104.471 18.8637 103.933 18.8637C103.395 18.8637 102.887 18.9888 102.423 19.2567C101.967 19.5184 101.607 19.8862 101.355 20.3479C101.077 20.8584 100.976 21.4406 100.976 22.0175C100.976 22.5944 101.077 23.1766 101.355 23.6871C101.608 24.1503 101.966 24.5265 102.423 24.7897C102.886 25.056 103.401 25.172 103.933 25.172ZM91.1747 25.172C91.7189 25.172 92.2003 25.0433 92.7265 24.7905C93.1885 24.5288 93.5477 24.1518 93.805 23.6886C94.0881 23.1758 94.1962 22.5982 94.1962 22.0175C94.1962 21.4368 94.0858 20.8622 93.8057 20.3479C93.5515 19.8816 93.1923 19.5116 92.7258 19.2559C92.2494 18.982 91.7212 18.8637 91.1747 18.8637C90.6283 18.8637 90.1016 18.9858 89.6229 19.2559C89.1625 19.5169 88.7972 19.8832 88.5438 20.3479C88.2652 20.8584 88.164 21.4398 88.164 22.0175C88.164 22.5951 88.272 23.1774 88.5552 23.6886C88.8116 24.1518 89.1709 24.5288 89.6336 24.7905C90.107 25.0583 90.6336 25.172 91.1747 25.172Z" fill="#262626"/>
<g clip-path="url(#clip0_991_5538)">
<path d="M12.5488 33.0271C11.9263 32.4774 11.3485 31.8691 10.8237 31.2105C10.7288 31.0933 10.5418 31.1463 10.525 31.2942L9.95559 36.6967L9.92489 37.0008C9.92209 37.0315 9.91093 37.0594 9.89418 37.0818L8.46777 39.0463C8.41473 39.1188 8.42869 39.2221 8.49847 39.2779C9.00651 39.6825 9.5313 40.062 10.07 40.4192C10.1454 40.4695 10.2459 40.4499 10.2989 40.3774L11.7254 38.4101C11.7421 38.3849 11.7672 38.3654 11.7951 38.3542L12.0743 38.2343L17.0207 36.0297C17.1574 35.9683 17.1519 35.773 17.0095 35.72C16.2307 35.4214 15.4798 35.0586 14.7624 34.6345C14.715 34.6066 14.6591 34.6038 14.6117 34.6261L12.4344 35.5944C12.3953 35.6112 12.3506 35.5805 12.3562 35.5386L12.6046 33.1667C12.6102 33.1136 12.5907 33.0606 12.5488 33.0271Z" fill="#FF553D"/>
<path d="M4.37627 34.9482C3.99664 34.4236 3.64213 33.8794 3.30995 33.3185C3.26808 33.246 3.28483 33.1511 3.35182 33.0981L6.73781 30.4526C6.78247 30.4192 6.76014 30.3466 6.70431 30.3466L1.85004 30.1792C1.78026 30.1792 1.71885 30.1317 1.69652 30.0648L0.93725 27.7319C0.914919 27.6649 0.93725 27.5924 0.993078 27.5477L4.82011 24.5563C4.86477 24.5228 4.84244 24.4502 4.78661 24.4502L0.501789 24.3023C0.418047 24.2995 0.348261 24.2326 0.339887 24.1488C0.272893 23.5014 0.242188 22.8512 0.242188 22.2038C0.242188 22.109 0.323139 22.0308 0.418047 22.0364L7.48033 22.282C7.56965 22.2848 7.63665 22.3545 7.63944 22.4438C7.65898 23.2587 7.74551 24.0819 7.90741 24.9051C7.91858 24.9665 7.89625 25.0279 7.846 25.0669L4.22554 27.8937C4.18088 27.9272 4.20321 27.9998 4.25903 27.9998L8.84812 28.1588C8.90953 28.1588 8.96536 28.1979 8.99328 28.2565C9.34499 29.0183 9.75533 29.7383 10.2215 30.4108C10.2717 30.4833 10.2578 30.581 10.188 30.6368L4.61913 34.9845C4.54376 35.0431 4.43489 35.0291 4.37907 34.951L4.37627 34.9482Z" fill="#FF553D"/>
<path d="M8.79313 16.4095C9.12531 15.6477 9.52169 14.911 9.98786 14.2078C10.0716 14.0822 9.96274 13.9204 9.81479 13.9511L4.49994 15.0784L4.20125 15.1426C4.17334 15.1482 4.14263 15.1482 4.11472 15.137L1.80622 14.3892C1.71969 14.3613 1.62757 14.4059 1.59686 14.4896C1.37076 15.098 1.16978 15.7119 0.996709 16.337C0.971586 16.4235 1.02183 16.5156 1.10837 16.5435L3.41966 17.2913C3.44757 17.2997 3.47269 17.3164 3.49223 17.3388L3.69322 17.5676L7.31927 21.5887C7.41976 21.7004 7.6012 21.6334 7.60957 21.4827C7.65144 20.6511 7.76589 19.8223 7.94733 19.0103C7.9585 18.9573 7.94733 18.9042 7.90825 18.8624L6.31436 17.0904C6.28644 17.0597 6.30319 17.0067 6.34506 16.9983L8.67869 16.5016C8.73172 16.4904 8.77359 16.4542 8.79593 16.4067L8.79313 16.4095Z" fill="#FF553D"/>
<path d="M4.44403 9.22861C4.82646 8.70678 5.234 8.2017 5.66388 7.71056C5.71971 7.64638 5.81462 7.63522 5.8844 7.68266L9.44904 10.0853C9.4965 10.116 9.55512 10.0741 9.54116 10.0183L8.20128 5.35257C8.18174 5.2856 8.20686 5.21304 8.26269 5.17118L10.2474 3.72848C10.3032 3.68662 10.3814 3.68662 10.44 3.72569L14.468 6.44087C14.5155 6.47157 14.5741 6.42971 14.5601 6.3739L13.3766 2.25229C13.3542 2.17137 13.3933 2.08486 13.4715 2.05138C14.0716 1.79186 14.6802 1.56024 15.2943 1.35932C15.3836 1.32863 15.4813 1.38165 15.5092 1.47374L17.4576 8.26588C17.4827 8.34959 17.4353 8.43889 17.3515 8.4668C16.5811 8.73748 15.8274 9.07513 15.0933 9.48255C15.0375 9.51324 14.9733 9.51045 14.9202 9.47418L11.1127 6.9041C11.0653 6.87341 11.0067 6.91526 11.0206 6.97107L12.2851 11.3829C12.3019 11.4443 12.2851 11.5085 12.2377 11.5503C11.6236 12.1196 11.0653 12.7307 10.5684 13.3837C10.5154 13.4535 10.4177 13.4702 10.3451 13.42L4.4859 9.4686C4.40774 9.41558 4.38821 9.30675 4.44403 9.22861Z" fill="#FF553D"/>
<path d="M23.45 7.69973C24.2762 7.77786 25.1025 7.93134 25.9148 8.15458C26.06 8.19365 26.1828 8.04296 26.1074 7.91181L23.3914 3.20698L23.2378 2.94188C23.2239 2.91677 23.2155 2.88607 23.2155 2.85817V0.430409C23.2155 0.341112 23.1429 0.265768 23.0536 0.260187C22.406 0.232281 21.7584 0.232281 21.1108 0.260187C21.0215 0.262977 20.9489 0.338321 20.9489 0.430409V2.86096C20.9489 2.89165 20.9433 2.91956 20.9265 2.94746L20.773 3.20977L18.0681 7.89786C17.9928 8.02901 18.1128 8.1797 18.2579 8.14063C19.0619 7.92297 19.8853 7.77507 20.7144 7.69694C20.7674 7.69136 20.8149 7.66066 20.8428 7.61601L22.0347 5.55381C22.0571 5.51754 22.1101 5.51754 22.1324 5.55381L23.3244 7.6188C23.3523 7.66624 23.3997 7.69415 23.4528 7.69973H23.45Z" fill="#FF553D"/>
<path d="M28.9366 1.34258C29.5508 1.5435 30.1593 1.77512 30.7594 2.03463C30.8376 2.06812 30.8767 2.15463 30.8543 2.23555L29.6708 6.36553C29.654 6.41855 29.7154 6.4632 29.7629 6.4325L33.7881 3.71453C33.8467 3.67546 33.9221 3.67546 33.9807 3.71732L35.9654 5.16002C36.0213 5.20188 36.0464 5.27444 36.0268 5.34141L34.6898 10.01C34.673 10.063 34.7344 10.1076 34.7819 10.0769L38.3353 7.67708C38.4051 7.62964 38.5 7.6408 38.5559 7.70498C38.9885 8.19333 39.3961 8.7012 39.7757 9.22303C39.8315 9.30116 39.812 9.41 39.7338 9.46301L33.8747 13.4144C33.8021 13.4646 33.7044 13.4479 33.6513 13.3781C33.1573 12.7279 32.6018 12.1168 31.9877 11.5447C31.943 11.5029 31.9235 11.4387 31.9402 11.3773L33.2075 6.9627C33.2243 6.90968 33.1628 6.86504 33.1154 6.89573L29.3107 9.46301C29.2577 9.49929 29.1907 9.49929 29.1376 9.4686C28.4063 9.05839 27.6498 8.71794 26.8794 8.44726C26.7956 8.41936 26.751 8.33006 26.7733 8.24635L28.7217 1.45421C28.7468 1.36212 28.8445 1.3091 28.9366 1.33979V1.34258Z" fill="#FF553D"/>
<path d="M36.2635 18.9411C36.445 19.7531 36.5538 20.5819 36.5929 21.4247C36.5985 21.5753 36.7827 21.6423 36.8832 21.5307L40.5204 17.4956L40.7242 17.2668C40.7437 17.2444 40.7689 17.2277 40.7968 17.2193L43.1053 16.4687C43.1918 16.4408 43.2393 16.3487 43.2169 16.2622C43.0439 15.6371 42.8429 15.0204 42.6168 14.4176C42.5861 14.3339 42.4912 14.2893 42.4074 14.3172L40.0961 15.0706C40.0682 15.079 40.0375 15.0818 40.0068 15.0762L39.7081 15.0092L34.41 13.8847C34.2621 13.854 34.156 14.0158 34.237 14.1414C34.692 14.839 35.0855 15.5757 35.4177 16.3403C35.4401 16.3905 35.4819 16.4268 35.535 16.438L37.8658 16.9347C37.9077 16.9431 37.9244 16.9961 37.8965 17.0268L36.2998 18.7988C36.2635 18.8378 36.2496 18.8936 36.2607 18.9439L36.2635 18.9411Z" fill="#FF553D"/>
<path d="M44.004 22.1919C44.004 22.8393 43.9705 23.4867 43.9091 24.1369C43.9007 24.2206 43.831 24.2876 43.7472 24.2904L39.4512 24.4411C39.3954 24.4411 39.3731 24.5136 39.4177 24.5471L43.2476 27.5358C43.3034 27.5804 43.3257 27.653 43.3034 27.72L42.5441 30.0528C42.5218 30.1198 42.4604 30.1672 42.3906 30.1672L37.5363 30.3375C37.4805 30.3375 37.4582 30.41 37.5028 30.4435L40.8832 33.0806C40.9502 33.1336 40.967 33.2257 40.9251 33.301C40.5929 33.8647 40.2356 34.4061 39.8588 34.9307C39.8029 35.0088 39.6941 35.0228 39.6187 34.9642L34.0498 30.6165C33.9801 30.5635 33.9661 30.463 34.0163 30.3905C34.4797 29.7208 34.8928 29.0036 35.2474 28.2418C35.2725 28.186 35.3283 28.1469 35.3925 28.1469L39.9844 27.9878C40.0402 27.9878 40.0625 27.9153 40.0179 27.8818L36.4002 25.0578C36.35 25.0187 36.3276 24.9573 36.3388 24.8959C36.5007 24.0727 36.5928 23.2495 36.6124 22.4319C36.6124 22.3426 36.6849 22.2728 36.7715 22.2701L43.8338 22.0245C43.9287 22.0217 44.0096 22.097 44.0096 22.1919H44.004Z" fill="#FF553D"/>
<path d="M29.5237 34.5929C28.8091 35.0143 28.0527 35.377 27.2627 35.6728C27.1203 35.7258 27.1148 35.9212 27.2515 35.9826L32.2147 38.1927L32.4938 38.3155C32.5217 38.3266 32.5441 38.3461 32.5608 38.3713L33.99 40.333C34.043 40.4056 34.1435 40.4251 34.2189 40.3749C34.7604 40.0177 35.2824 39.6354 35.7905 39.2335C35.8603 39.1777 35.8742 39.0745 35.8212 39.0019L34.392 37.0374C34.3752 37.0123 34.3641 36.9844 34.3613 36.9537L34.3334 36.6495L33.7639 31.2666C33.7472 31.1159 33.5601 31.0629 33.4652 31.1801C32.9404 31.8275 32.3626 32.4302 31.7373 32.9828C31.6983 33.019 31.6759 33.0693 31.6815 33.1251L31.9299 35.4942C31.9355 35.5361 31.8909 35.5696 31.8518 35.55L29.6745 34.5817C29.6242 34.5594 29.5684 34.5622 29.5237 34.5901V34.5929Z" fill="#FF553D"/>
<path d="M28.822 42.958C28.2079 43.1561 27.5798 43.3263 26.9406 43.4686C26.8568 43.4882 26.7731 43.4407 26.7452 43.3626L25.2741 39.3247C25.2545 39.2717 25.182 39.2717 25.1624 39.3247L23.5015 43.8872C23.4764 43.9542 23.415 43.996 23.3452 43.996H20.8916C20.8218 43.996 20.7576 43.9514 20.7352 43.8872L19.0716 39.3247C19.052 39.2717 18.9794 39.2717 18.9599 39.3247L17.4944 43.3542C17.4665 43.4324 17.3828 43.4798 17.299 43.4631C16.6626 43.3207 16.0345 43.1505 15.4176 42.9524C15.3255 42.9245 15.278 42.824 15.3115 42.7347L17.7261 36.0961C17.7568 36.0124 17.8461 35.9677 17.9299 35.9956C18.7115 36.23 19.521 36.4002 20.3528 36.5007C20.4142 36.5091 20.4673 36.5481 20.4896 36.6067L22.0584 40.9237C22.0779 40.9767 22.1505 40.9767 22.17 40.9237L23.7388 36.6123C23.7611 36.5537 23.8142 36.5119 23.8756 36.5063C24.7074 36.4086 25.5197 36.2384 26.3041 36.0068C26.3879 35.9817 26.4772 36.0263 26.5079 36.1072L28.9225 42.7459C28.956 42.8352 28.9057 42.9356 28.8164 42.9636L28.822 42.958Z" fill="#FF553D"/>
</g>
<defs>
<clipPath id="clip0_991_5538">
<rect width="44" height="44" fill="white"/>
</clipPath>
</defs>
</svg>
