<svg width="44" height="44" viewBox="0 0 44 44" fill="none" xmlns="http://www.w3.org/2000/svg">
<rect width="44" height="44" rx="8" fill="#F7F7F7"/>
<path d="M11.4186 15.9956C11.7648 15.16 12.3116 14.4227 13.0108 13.8489C13.7099 13.2752 14.5398 12.8827 15.4268 12.7062C16.3139 12.5298 17.2307 12.5748 18.0962 12.8373C18.9617 13.0997 19.7491 13.5716 20.3887 14.2111L21.9997 15.822L23.6106 14.2111C24.1213 13.7003 24.7277 13.2952 25.395 13.0188C26.0623 12.7424 26.7775 12.6001 27.4998 12.6001C28.2221 12.6001 28.9373 12.7424 29.6046 13.0188C30.272 13.2952 30.8783 13.7003 31.389 14.2111C31.8998 14.7218 32.3049 15.3281 32.5813 15.9955C32.8577 16.6628 33 17.378 33 18.1003C33 18.8226 32.8577 19.5378 32.5813 20.2051C32.3049 20.8724 31.8998 21.4788 31.389 21.9895L21.9997 31.3789L12.6103 21.9895C11.8413 21.2201 11.3177 20.2401 11.1056 19.1732C10.8935 18.1063 11.0024 17.0005 11.4186 15.9956Z" stroke="#27C5D0" stroke-width="2.2" stroke-linecap="round" stroke-linejoin="round"/>
</svg>
