<svg width="72" height="72" viewBox="0 0 72 72" fill="none" xmlns="http://www.w3.org/2000/svg">
<g id="logo" clip-path="url(#clip0_2553_9653)">
<g id="Group">
<path id="Vector" d="M20.4492 53.824C19.4348 52.9282 18.4931 51.9368 17.6379 50.8636C17.4833 50.6726 17.1785 50.759 17.1512 51L16.2232 59.804L16.1732 60.2997C16.1686 60.3497 16.1504 60.3952 16.1231 60.4316L13.7986 63.633C13.7122 63.7513 13.7349 63.9195 13.8486 64.0105C14.6766 64.6699 15.5318 65.2883 16.4097 65.8704C16.5325 65.9523 16.6963 65.9204 16.7827 65.8022L19.1073 62.5962C19.1345 62.5553 19.1755 62.5234 19.221 62.5053L19.6759 62.3097L27.7367 58.7172C27.9596 58.6171 27.9505 58.2988 27.7185 58.2124C26.4493 57.7258 25.2256 57.1346 24.0565 56.4434C23.9792 56.3979 23.8882 56.3934 23.8109 56.4298L20.2627 58.0078C20.199 58.035 20.1262 57.985 20.1353 57.9168L20.5402 54.0514C20.5493 53.965 20.5174 53.8786 20.4492 53.824Z" fill="#FF553D"/>
<path id="Vector_2" d="M7.12961 56.9545C6.51095 56.0995 5.93323 55.2128 5.3919 54.2987C5.32367 54.1805 5.35096 54.0258 5.46014 53.9394L10.978 49.6284C11.0508 49.5738 11.0144 49.4556 10.9235 49.4556L3.01279 49.1827C2.89906 49.1827 2.79899 49.1054 2.76259 48.9963L1.52527 45.1946C1.48888 45.0854 1.52527 44.9672 1.61625 44.8944L7.8529 40.0195C7.92568 39.9649 7.88929 39.8467 7.79831 39.8467L0.815633 39.6056C0.679163 39.6011 0.565439 39.492 0.551792 39.3555C0.442617 38.3005 0.392578 37.2409 0.392578 36.1859C0.392578 36.0313 0.524498 35.904 0.679163 35.9131L12.1881 36.3132C12.3336 36.3178 12.4428 36.4315 12.4474 36.577C12.4792 37.9049 12.6202 39.2464 12.8841 40.5879C12.9023 40.688 12.8659 40.788 12.784 40.8517L6.88396 45.4583C6.81118 45.5129 6.84757 45.6311 6.93855 45.6311L14.4171 45.8903C14.5171 45.8903 14.6081 45.954 14.6536 46.0495C15.2268 47.291 15.8955 48.4642 16.6552 49.5602C16.737 49.6784 16.7143 49.8376 16.6006 49.9285L7.52537 57.0136C7.40255 57.1091 7.22514 57.0863 7.13416 56.959L7.12961 56.9545Z" fill="#FF553D"/>
</g>
<g id="Group_2">
<path id="Vector_3" d="M14.3311 26.743C14.8724 25.5015 15.5184 24.301 16.278 23.155C16.4145 22.9504 16.2371 22.6866 15.996 22.7367L7.33475 24.5739L6.84801 24.6784C6.80252 24.6875 6.75248 24.6875 6.70699 24.6694L2.94499 23.4506C2.80397 23.4051 2.65385 23.4779 2.60381 23.6143C2.23535 24.6057 1.90782 25.6061 1.62579 26.6248C1.58484 26.7658 1.66673 26.9158 1.80774 26.9613L5.5743 28.18C5.61978 28.1937 5.66073 28.221 5.69257 28.2573L6.02009 28.6302L11.9292 35.1832C12.093 35.3651 12.3887 35.256 12.4023 35.0104C12.4705 33.6553 12.657 32.3046 12.9527 30.9813C12.9709 30.8949 12.9527 30.8085 12.889 30.7403L10.2916 27.8526C10.2461 27.8026 10.2734 27.7162 10.3416 27.7026L14.1446 26.8931C14.231 26.8749 14.2992 26.8158 14.3356 26.7385L14.3311 26.743Z" fill="#FF553D"/>
<path id="Vector_4" d="M7.24245 15.0409C7.86566 14.1905 8.52981 13.3674 9.23036 12.567C9.32134 12.4625 9.476 12.4443 9.58972 12.5216L15.3988 16.437C15.4761 16.487 15.5716 16.4188 15.5489 16.3278L13.3654 8.72439C13.3335 8.61524 13.3745 8.49701 13.4655 8.4288L16.6998 6.07773C16.7908 6.00951 16.9181 6.00951 17.0137 6.07318L23.5778 10.4979C23.6552 10.5479 23.7507 10.4797 23.7279 10.3888L21.7992 3.67209C21.7628 3.54021 21.8265 3.39923 21.9538 3.34466C22.9319 2.92174 23.9235 2.5443 24.9243 2.21688C25.0699 2.16686 25.2291 2.25326 25.2746 2.40333L28.4498 13.472C28.4907 13.6084 28.4134 13.7539 28.2769 13.7994C27.0214 14.2405 25.7932 14.7908 24.5968 15.4547C24.5058 15.5047 24.4012 15.5002 24.3148 15.4411L18.11 11.2528C18.0326 11.2028 17.9371 11.271 17.9598 11.362L20.0205 18.5516C20.0478 18.6516 20.0205 18.7562 19.9432 18.8244C18.9424 19.7521 18.0326 20.748 17.2229 21.8122C17.1365 21.9258 16.9773 21.9531 16.859 21.8713L7.31069 15.432C7.18332 15.3456 7.15147 15.1682 7.24245 15.0409Z" fill="#FF553D"/>
</g>
<g id="Group_3">
<path id="Vector_5" d="M38.2184 12.5484C39.5649 12.6758 40.9114 12.9259 42.2351 13.2897C42.4717 13.3533 42.6719 13.1078 42.549 12.894L38.1229 5.22692L37.8727 4.7949C37.8499 4.75397 37.8363 4.70395 37.8363 4.65848V0.70213C37.8363 0.55661 37.718 0.433826 37.5725 0.424731C36.5171 0.379256 35.4617 0.379256 34.4064 0.424731C34.2608 0.429279 34.1425 0.552062 34.1425 0.70213V4.66302C34.1425 4.71305 34.1334 4.75852 34.1061 4.804L33.8559 5.23146L29.448 12.8713C29.3252 13.085 29.5208 13.3306 29.7573 13.2669C31.0674 12.9122 32.4094 12.6712 33.7604 12.5439C33.8468 12.5348 33.9242 12.4848 33.9697 12.412L35.9121 9.05138C35.9485 8.99227 36.0349 8.99227 36.0713 9.05138L38.0137 12.4166C38.0592 12.4939 38.1365 12.5393 38.223 12.5484H38.2184Z" fill="#FF553D"/>
<path id="Vector_6" d="M47.1578 2.18822C48.1586 2.51564 49.1503 2.89309 50.1283 3.31601C50.2557 3.37058 50.3194 3.51155 50.283 3.64343L48.3542 10.3738C48.3269 10.4602 48.427 10.5329 48.5043 10.4829L55.0639 6.05362C55.1595 5.98995 55.2823 5.98995 55.3778 6.05817L58.6121 8.40923C58.7031 8.47745 58.7441 8.59568 58.7122 8.70482L56.5333 16.3128C56.506 16.3992 56.606 16.472 56.6834 16.422L62.4742 12.5111C62.5879 12.4338 62.7426 12.452 62.8336 12.5566C63.5387 13.3524 64.2028 14.18 64.8215 15.0304C64.9125 15.1578 64.8806 15.3351 64.7533 15.4215L55.205 21.8608C55.0867 21.9427 54.9275 21.9154 54.841 21.8017C54.0359 20.7421 53.1306 19.7462 52.1299 18.814C52.0571 18.7458 52.0252 18.6412 52.0525 18.5411L54.1178 11.3469C54.145 11.2605 54.045 11.1878 53.9676 11.2378L47.7674 15.4215C47.681 15.4806 47.5718 15.4806 47.4853 15.4306C46.2935 14.7621 45.0607 14.2073 43.8052 13.7662C43.6688 13.7207 43.596 13.5752 43.6324 13.4388L46.8076 2.37012C46.8485 2.22005 47.0077 2.13365 47.1578 2.18367V2.18822Z" fill="#FF553D"/>
</g>
<g id="Group_4">
<path id="Vector_7" d="M59.0913 30.8679C59.387 32.1912 59.5644 33.5418 59.6281 34.9152C59.6372 35.1607 59.9374 35.2699 60.1012 35.088L66.0285 28.5123L66.3606 28.1394C66.3924 28.103 66.4333 28.0757 66.4788 28.0621L70.2408 26.8388C70.3819 26.7933 70.4592 26.6432 70.4228 26.5023C70.1408 25.4836 69.8132 24.4786 69.4448 23.4963C69.3947 23.3599 69.2401 23.2872 69.1036 23.3326L65.337 24.5605C65.2916 24.5741 65.2415 24.5787 65.1915 24.5696L64.7047 24.4604L56.0708 22.6278C55.8297 22.5777 55.6568 22.8415 55.7888 23.0461C56.5302 24.183 57.1716 25.3836 57.713 26.6296C57.7494 26.7114 57.8176 26.7706 57.904 26.7888L61.7024 27.5982C61.7707 27.6119 61.7979 27.6983 61.7525 27.7483L59.1504 30.636C59.0913 30.6996 59.0686 30.7906 59.0868 30.8724L59.0913 30.8679Z" fill="#FF553D"/>
<path id="Vector_8" d="M71.708 36.166C71.708 37.2211 71.6534 38.2761 71.5533 39.3357C71.5396 39.4721 71.4259 39.5812 71.2894 39.5858L64.2886 39.8313C64.1976 39.8313 64.1612 39.9496 64.234 40.0042L70.4752 44.8745C70.5662 44.9473 70.6026 45.0655 70.5662 45.1747L69.3288 48.9764C69.2925 49.0856 69.1924 49.1629 69.0786 49.1629L61.168 49.4403C61.077 49.4403 61.0406 49.5585 61.1134 49.6131L66.6222 53.9105C66.7314 53.9969 66.7587 54.147 66.6904 54.2697C66.1491 55.1883 65.5668 56.0706 64.9527 56.9255C64.8618 57.0528 64.6843 57.0756 64.5615 56.9801L55.4863 49.895C55.3726 49.8086 55.3498 49.6449 55.4317 49.5267C56.1869 48.4353 56.8601 47.2665 57.4378 46.0251C57.4788 45.9341 57.5697 45.8705 57.6744 45.8705L65.1574 45.6112C65.2484 45.6112 65.2848 45.493 65.212 45.4384L59.3166 40.8363C59.2347 40.7727 59.1983 40.6726 59.2165 40.5726C59.4803 39.2311 59.6304 37.8896 59.6623 36.5571C59.6623 36.4116 59.7805 36.2979 59.9216 36.2934L71.4305 35.8932C71.5851 35.8886 71.7171 36.0114 71.7171 36.166H71.708Z" fill="#FF553D"/>
</g>
<g id="Group_5">
<path id="Vector_9" d="M48.1126 56.3742C46.948 57.0609 45.7152 57.6521 44.4279 58.1341C44.1959 58.2205 44.1868 58.5388 44.4097 58.6389L52.4978 62.2405L52.9527 62.4406C52.9982 62.4588 53.0345 62.4906 53.0618 62.5315L55.3909 65.7285C55.4773 65.8467 55.6411 65.8785 55.7639 65.7967C56.6464 65.2146 57.4971 64.5916 58.325 63.9367C58.4387 63.8458 58.4615 63.6775 58.375 63.5593L56.046 60.3578C56.0187 60.3169 56.0005 60.2714 55.9959 60.2214L55.9504 59.7257L55.0224 50.9535C54.9952 50.708 54.6904 50.6216 54.5357 50.8126C53.6805 51.8676 52.7389 52.8499 51.7199 53.7503C51.6562 53.8094 51.6198 53.8912 51.6289 53.9822L52.0338 57.843C52.0429 57.9113 51.9701 57.9658 51.9064 57.934L48.3582 56.356C48.2763 56.3196 48.1853 56.3242 48.1126 56.3696V56.3742Z" fill="#FF553D"/>
<path id="Vector_10" d="M46.9711 70.0061C45.9703 70.329 44.9468 70.6064 43.9051 70.8383C43.7686 70.8701 43.6321 70.7928 43.5866 70.6655L41.1893 64.0852C41.1575 63.9988 41.0392 63.9988 41.0074 64.0852L38.3007 71.5204C38.2598 71.6296 38.1597 71.6978 38.046 71.6978H34.0474C33.9337 71.6978 33.8291 71.625 33.7927 71.5204L31.0815 64.0852C31.0497 63.9988 30.9314 63.9988 30.8995 64.0852L28.5113 70.6518C28.4658 70.7792 28.3294 70.8565 28.1929 70.8292C27.1557 70.5973 26.1322 70.3199 25.1269 69.997C24.9768 69.9515 24.8994 69.7878 24.954 69.6423L28.8889 58.8237C28.9389 58.6873 29.0845 58.6145 29.221 58.66C30.4947 59.042 31.8139 59.3194 33.1695 59.4831C33.2696 59.4968 33.356 59.5604 33.3924 59.6559L35.9489 66.6909C35.9807 66.7773 36.099 66.7773 36.1309 66.6909L38.6874 59.665C38.7238 59.5695 38.8102 59.5013 38.9103 59.4922C40.2659 59.3331 41.5896 59.0557 42.8679 58.6782C43.0044 58.6373 43.1499 58.71 43.2 58.8419L47.1348 69.6605C47.1894 69.806 47.1075 69.9697 46.962 70.0152L46.9711 70.0061Z" fill="#FF553D"/>
</g>
</g>
<defs>
<clipPath id="clip0_2553_9653">
<rect width="71.7037" height="71.7037" fill="white" transform="translate(0 0.000488281)"/>
</clipPath>
</defs>
</svg>
