<svg width="32" height="32" viewBox="0 0 32 32" fill="none" xmlns="http://www.w3.org/2000/svg">
<path d="M26.1141 11.667H11.6701C10.9039 11.667 10.1691 11.9713 9.62736 12.5131C9.08561 13.0549 8.78125 13.7896 8.78125 14.5558V23.2222C8.78125 23.9884 9.08561 24.7232 9.62736 25.2649C10.1691 25.8067 10.9039 26.111 11.6701 26.111H26.1141C26.8803 26.111 27.6151 25.8067 28.1568 25.2649C28.6986 24.7232 29.0029 23.9884 29.0029 23.2222V14.5558C29.0029 13.7896 28.6986 13.0549 28.1568 12.5131C27.6151 11.9713 26.8803 11.667 26.1141 11.667Z" stroke="#75DCE3" stroke-width="2" stroke-linecap="round" stroke-linejoin="round"/>
<path d="M18.8888 21.7776C19.655 21.7776 20.3898 21.4733 20.9315 20.9315C21.4733 20.3898 21.7776 19.655 21.7776 18.8888C21.7776 18.1227 21.4733 17.3879 20.9315 16.8461C20.3898 16.3044 19.655 16 18.8888 16C18.1227 16 17.3879 16.3044 16.8461 16.8461C16.3044 17.3879 16 18.1227 16 18.8888C16 19.655 16.3044 20.3898 16.8461 20.9315C17.3879 21.4733 18.1227 21.7776 18.8888 21.7776Z" stroke="#75DCE3" stroke-width="2" stroke-linecap="round" stroke-linejoin="round"/>
<path d="M23.2217 11.6673V8.77846C23.2217 8.0123 22.9173 7.27752 22.3756 6.73576C21.8338 6.194 21.099 5.88965 20.3329 5.88965H5.88881C5.12265 5.88965 4.38787 6.194 3.84611 6.73576C3.30436 7.27752 3 8.0123 3 8.77846V17.4449C3 18.2111 3.30436 18.9458 3.84611 19.4876C4.38787 20.0293 5.12265 20.3337 5.88881 20.3337H8.77762" stroke="#75DCE3" stroke-width="2" stroke-linecap="round" stroke-linejoin="round"/>
</svg>
