<svg width="132" height="34" viewBox="0 0 132 34" fill="none" xmlns="http://www.w3.org/2000/svg">
<path id="Vector" fill-rule="evenodd" clip-rule="evenodd" d="M4.59372 11.2414L5.07741 10.5525C5.47925 9.98298 5.96171 9.48059 6.53099 9.08018C7.07918 8.69344 7.67822 8.39624 8.31943 8.201C8.94327 8.01074 9.58944 7.90131 10.2431 7.90131C11.389 7.90131 12.5028 8.13883 13.4826 8.7581C14.3297 9.29531 14.9734 10.0078 15.3244 10.9591L15.5092 11.4615L15.7969 11.0101C16.4691 9.95686 17.3584 9.13987 18.5081 8.63997C19.6231 8.15375 20.7914 7.90131 22.0068 7.90131C23.2967 7.90131 24.7143 8.09904 25.8119 8.82525C26.6987 9.4122 27.3647 10.1819 27.7641 11.1743C28.1634 12.1654 28.3643 13.2037 28.3643 14.2719V24.9128C28.3643 25.1504 28.1717 25.343 27.9341 25.343H24.29C24.0524 25.343 23.8598 25.1504 23.8598 24.9128V15.7231C23.8598 14.7258 23.6117 13.7745 22.9494 13.0072C22.2685 12.2201 21.3086 11.9477 20.2978 11.9477C19.6094 11.9477 18.9459 12.0957 18.3419 12.4315C17.7738 12.7461 17.3063 13.1776 16.9665 13.7359C16.6241 14.2993 16.479 14.9285 16.479 15.5851V24.9128C16.479 25.1504 16.2864 25.343 16.0488 25.343H12.4047C12.1671 25.343 11.9744 25.1504 11.9744 24.9128V15.7231C11.9744 14.7258 11.7289 13.7695 11.0629 13.0072C10.3782 12.2238 9.42325 11.9477 8.41245 11.9477C7.71915 11.9477 7.04569 12.0908 6.43673 12.4315C5.87366 12.7473 5.416 13.1826 5.0799 13.7359C4.73883 14.2993 4.59248 14.931 4.59248 15.5851V24.9128C4.59248 25.1504 4.39986 25.343 4.16226 25.343H0.518112C0.280507 25.343 0.0878906 25.1504 0.0878906 24.9128V8.85009C0.0878906 8.61248 0.280508 8.41986 0.518113 8.41986H4.16226C4.39986 8.41986 4.59248 8.61248 4.59248 8.85009V11.2427L4.59372 11.2414ZM119.756 14.3221C119.756 14.583 120.076 14.7084 120.253 14.5169L125.771 8.55657C125.853 8.46862 125.967 8.41862 126.087 8.41862H130.107C130.477 8.41862 130.675 8.85538 130.43 9.13324L125.353 14.8964C125.268 14.9926 125.257 15.1335 125.327 15.2413L131.406 24.6798C131.591 24.9661 131.385 25.343 131.045 25.343H126.724C126.575 25.343 126.437 25.2656 126.358 25.1385L122.125 18.2679C122.027 18.1083 121.805 18.0844 121.675 18.2195L119.836 20.1302C119.785 20.1836 119.756 20.2549 119.756 20.3291V24.9128C119.756 25.1504 119.563 25.343 119.326 25.343H115.681C115.444 25.343 115.251 25.1504 115.251 24.9128V1.41753C115.251 1.17992 115.444 0.987305 115.681 0.987305H119.326C119.563 0.987305 119.756 1.17992 119.756 1.41753V14.3221ZM99.0338 10.9119L99.5125 10.2852C100.112 9.49676 100.853 8.85883 101.769 8.46712C102.653 8.08784 103.583 7.90131 104.543 7.90131C105.876 7.90131 107.252 8.12888 108.408 8.83023C109.369 9.41469 110.144 10.1832 110.655 11.1942C111.142 12.1604 111.402 13.1863 111.402 14.2707V24.9116C111.402 25.1492 111.209 25.3418 110.971 25.3418H107.327C107.09 25.3418 106.897 25.1492 106.897 24.9116V15.8437C106.897 14.7917 106.624 13.7969 105.894 13.0172C105.143 12.2164 104.109 11.9465 103.043 11.9465C102.306 11.9465 101.601 12.1107 100.961 12.485C100.35 12.8406 99.8672 13.3293 99.5324 13.9536C99.1727 14.6213 99.035 15.3662 99.035 16.1198V24.9103C99.035 25.1479 98.8424 25.3405 98.6048 25.3405H94.9606C94.723 25.3405 94.5304 25.1479 94.5304 24.9103V8.8476C94.5304 8.60999 94.723 8.41738 94.9606 8.41738H98.6048C98.8424 8.41738 99.035 8.60999 99.035 8.8476V10.9089C99.035 10.91 99.0346 10.9111 99.0338 10.9119ZM86.8297 22.6471L86.3522 23.2713C85.8722 23.8968 85.2782 24.4116 84.6109 24.8294C83.393 25.5905 81.9791 25.8603 80.5602 25.8603C79.0261 25.8603 77.5564 25.5271 76.2281 24.7387C74.932 23.9702 73.9386 22.8995 73.2229 21.5751C72.4391 20.1264 72.1328 18.5173 72.1328 16.8796C72.1328 15.636 72.3089 14.3913 72.7529 13.2249C73.1572 12.1679 73.7476 11.2141 74.5264 10.3933C75.2855 9.59375 76.1797 8.97821 77.1942 8.55416C78.267 8.10774 79.3994 7.90131 80.559 7.90131C81.9779 7.90131 83.393 8.1724 84.6097 8.9322C85.2769 9.34878 85.871 9.86236 86.351 10.4903L86.8285 11.1146V8.84884C86.8285 8.61124 87.0211 8.41862 87.2587 8.41862H90.2467C90.4844 8.41862 90.677 8.61124 90.677 8.84884V24.9116C90.677 25.1492 90.4844 25.3418 90.2467 25.3418H87.2589C87.0212 25.3418 86.8286 25.149 86.8287 24.9114L86.8297 22.6471ZM55.6746 10.32L56.1199 9.90588C56.6172 9.44453 57.1704 9.05033 57.7719 8.73448C58.9055 8.14007 60.1532 7.90131 61.4257 7.90131C62.9971 7.90131 64.4965 8.25323 65.8397 9.08764C67.1346 9.8922 68.1329 10.9778 68.8511 12.3233C69.6076 13.7397 69.9412 15.2792 69.9412 16.8808C69.9412 18.1318 69.7465 19.3666 69.3025 20.5368C68.9019 21.5901 68.3277 22.5525 67.5476 23.3671C66.786 24.1642 65.8869 24.776 64.8761 25.2075C63.8082 25.6638 62.6709 25.8603 61.5137 25.8603C60.5153 25.8603 59.5244 25.7136 58.5855 25.3754C57.7521 25.0732 56.9732 24.6516 56.3084 24.0609C56.0182 23.8023 55.7503 23.5175 55.5146 23.2079L55.0372 22.5811V24.9128C55.0372 25.1504 54.8445 25.343 54.6069 25.343H51.6189C51.3813 25.343 51.1887 25.1504 51.1887 24.9128V1.41753C51.1887 1.17992 51.3813 0.987305 51.6189 0.987305H55.2457C55.4833 0.987305 55.6759 1.17992 55.6759 1.41753V10.3212L55.6746 10.32ZM37.1329 25.7397L30.669 9.00385C30.5602 8.72196 30.7682 8.41862 31.0704 8.41862H35.0223C35.2073 8.41862 35.3716 8.53691 35.4303 8.71237L39.4255 20.6568C39.5132 20.9191 39.8848 20.9175 39.9703 20.6545L43.849 8.71591C43.9066 8.53864 44.0718 8.41862 44.2582 8.41862H48.0768C48.3773 8.41862 48.5853 8.71897 48.4795 9.00029L41.5209 27.5018C41.0533 28.6819 40.4382 29.8918 39.5874 30.8419C38.9263 31.5793 38.1474 32.1874 37.2222 32.5517C36.3292 32.9012 35.3953 33.069 34.4378 33.069C33.7259 33.069 33.0153 32.9969 32.3183 32.8489C31.7403 32.7283 31.1822 32.5381 30.6526 32.2782C30.5956 32.2507 30.5659 32.1868 30.5816 32.1255L31.4671 28.6609C31.4875 28.5812 31.5743 28.5386 31.6498 28.5712C31.9152 28.6893 32.1918 28.7839 32.4733 28.8572C32.8999 28.9679 33.3402 29.0388 33.7817 29.0388C34.4329 29.0388 35.0877 28.9107 35.6359 28.5451C36.2002 28.1671 36.5351 27.5689 36.7422 26.936L37.1329 25.7397ZM81.3714 22.0216C82.2433 22.0216 83.0904 21.8363 83.8506 21.3986C84.5935 20.9708 85.1628 20.3527 85.5721 19.6017C86.0285 18.7648 86.2083 17.8284 86.2083 16.8808C86.2083 15.9333 86.0285 14.9981 85.5721 14.16C85.1641 13.4114 84.5911 12.8058 83.8506 12.3817C83.0879 11.9428 82.2482 11.7413 81.3714 11.7413C80.4945 11.7413 79.6673 11.9453 78.9107 12.3817C78.1678 12.8083 77.5812 13.4076 77.1707 14.16C76.7167 14.9919 76.5518 15.9407 76.5518 16.8808C76.5518 17.8209 76.7167 18.7697 77.1707 19.6017C77.5824 20.3565 78.1653 20.9695 78.9107 21.3986C79.6648 21.8325 80.5044 22.0216 81.3714 22.0216ZM60.5798 22.0216C61.4666 22.0216 62.251 21.8118 63.1087 21.3998C63.8615 20.9733 64.4469 20.359 64.8661 19.6041C65.3275 18.7685 65.5036 17.8271 65.5036 16.8808C65.5036 15.9345 65.3238 14.9981 64.8674 14.16C64.4531 13.4002 63.8677 12.7971 63.1075 12.3805C62.3311 11.9341 61.4703 11.7413 60.5798 11.7413C59.6893 11.7413 58.8311 11.9403 58.051 12.3805C57.3006 12.8058 56.7053 13.4027 56.2923 14.16C55.8384 14.9919 55.6734 15.9395 55.6734 16.8808C55.6734 17.8222 55.8495 18.771 56.3109 19.6041C56.7288 20.359 57.3142 20.9733 58.0683 21.3998C58.8398 21.8363 59.698 22.0216 60.5798 22.0216Z" fill="white"/>
</svg>
