<svg width="44" height="44" viewBox="0 0 44 44" fill="none" xmlns="http://www.w3.org/2000/svg">
<g id="Frame">
<rect width="44" height="44" rx="8" fill="#F7F7F7"/>
<g id="Group 2087326300">
<path id="Vector" d="M28.5931 11C27.7178 11 26.8784 11.3477 26.2595 11.9666C25.6407 12.5855 25.293 13.4249 25.293 14.3001C25.293 15.1754 25.6407 16.0148 26.2595 16.6336C26.8784 17.2525 27.7178 17.6002 28.5931 17.6002C29.4683 17.6002 30.3077 17.2525 30.9266 16.6336C31.5455 16.0148 31.8932 15.1754 31.8932 14.3001C31.8932 13.4249 31.5455 12.5855 30.9266 11.9666C30.3077 11.3477 29.4683 11 28.5931 11Z" stroke="#27C5D0" stroke-width="2" stroke-linecap="round" stroke-linejoin="round"/>
<path id="Vector_2" d="M15.3978 18.6997C14.5225 18.6997 13.6831 19.0474 13.0642 19.6663C12.4453 20.2852 12.0977 21.1246 12.0977 21.9998C12.0977 22.8751 12.4453 23.7145 13.0642 24.3334C13.6831 24.9522 14.5225 25.2999 15.3978 25.2999C16.273 25.2999 17.1124 24.9522 17.7313 24.3334C18.3502 23.7145 18.6979 22.8751 18.6979 21.9998C18.6979 21.1246 18.3502 20.2852 17.7313 19.6663C17.1124 19.0474 16.273 18.6997 15.3978 18.6997Z" stroke="#27C5D0" stroke-width="2" stroke-linecap="round" stroke-linejoin="round"/>
<path id="Vector_3" d="M28.5931 26.3999C27.7178 26.3999 26.8784 26.7476 26.2595 27.3665C25.6407 27.9854 25.293 28.8248 25.293 29.7C25.293 30.5753 25.6407 31.4147 26.2595 32.0335C26.8784 32.6524 27.7178 33.0001 28.5931 33.0001C29.4683 33.0001 30.3077 32.6524 30.9266 32.0335C31.5455 31.4147 31.8932 30.5753 31.8932 29.7C31.8932 28.8248 31.5455 27.9854 30.9266 27.3665C30.3077 26.7476 29.4683 26.3999 28.5931 26.3999Z" stroke="#27C5D0" stroke-width="2" stroke-linecap="round" stroke-linejoin="round"/>
<path id="Vector_4" d="M18.2422 23.6606L25.7554 28.0388" stroke="#27C5D0" stroke-width="2" stroke-linecap="round" stroke-linejoin="round"/>
<path id="Vector_5" d="M25.7444 15.9604L18.2422 20.3386" stroke="#27C5D0" stroke-width="2" stroke-linecap="round" stroke-linejoin="round"/>
</g>
</g>
</svg>
