<svg width="32" height="32" viewBox="0 0 32 32" fill="none" xmlns="http://www.w3.org/2000/svg">
<g clip-path="url(#clip0_1152_832)">
<path d="M31.7911 9.29994C31.7911 6.48661 29.7218 4.22394 27.1658 4.22394C23.6338 4.06682 20.0986 3.99214 16.5631 3.99994H15.4378C11.8378 3.99994 8.30047 4.06261 4.8378 4.22528C2.28847 4.22528 0.219135 6.49994 0.219135 9.31194C0.0663392 11.5335 -0.00659677 13.7598 0.000467912 15.9866C-0.00538326 18.2155 0.0657703 20.444 0.213801 22.6679C0.213801 25.4813 2.2818 27.7613 4.83247 27.7613C8.4698 27.9306 12.2005 28.0053 15.9951 27.9986C19.7951 28.0119 23.5151 27.9319 27.1565 27.7613C29.7138 27.7613 31.7831 25.4813 31.7831 22.6679C31.9311 20.4417 32.0018 18.2111 31.9951 15.9799C32.009 13.7515 31.941 11.5234 31.7911 9.29994ZM12.9378 22.1186V9.83728L22.0005 15.9733L12.9378 22.1173V22.1186Z" fill="#262626"/>
</g>
<defs>
<clipPath id="clip0_1152_832">
<rect width="32" height="32" fill="white"/>
</clipPath>
</defs>
</svg>
